<svg width="28" height="26" viewBox="0 0 28 26" fill="none" xmlns="http://www.w3.org/2000/svg">
<path d="M23.3334 4.66665H19.635L17.5 2.33331H10.5L8.36504 4.66665H4.66671C4.04787 4.66665 3.45438 4.91248 3.01679 5.35006C2.57921 5.78765 2.33337 6.38114 2.33337 6.99998V21C2.33337 21.6188 2.57921 22.2123 3.01679 22.6499C3.45438 23.0875 4.04787 23.3333 4.66671 23.3333H23.3334C23.9522 23.3333 24.5457 23.0875 24.9833 22.6499C25.4209 22.2123 25.6667 21.6188 25.6667 21V6.99998C25.6667 6.38114 25.4209 5.78765 24.9833 5.35006C24.5457 4.91248 23.9522 4.66665 23.3334 4.66665ZM23.3334 21H4.66671V6.99998H9.39171L11.5267 4.66665H16.4734L18.6084 6.99998H23.3334V21ZM14 8.16665C12.4529 8.16665 10.9692 8.78123 9.87525 9.87519C8.78129 10.9692 8.16671 12.4529 8.16671 14C8.16671 15.5471 8.78129 17.0308 9.87525 18.1248C10.9692 19.2187 12.4529 19.8333 14 19.8333C15.5471 19.8333 17.0309 19.2187 18.1248 18.1248C19.2188 17.0308 19.8334 15.5471 19.8334 14C19.8334 12.4529 19.2188 10.9692 18.1248 9.87519C17.0309 8.78123 15.5471 8.16665 14 8.16665ZM14 17.5C13.0718 17.5 12.1815 17.1312 11.5252 16.4749C10.8688 15.8185 10.5 14.9282 10.5 14C10.5 13.0717 10.8688 12.1815 11.5252 11.5251C12.1815 10.8687 13.0718 10.5 14 10.5C14.9283 10.5 15.8185 10.8687 16.4749 11.5251C17.1313 12.1815 17.5 13.0717 17.5 14C17.5 14.9282 17.1313 15.8185 16.4749 16.4749C15.8185 17.1312 14.9283 17.5 14 17.5Z" fill="white"/>
</svg>
