<svg width="28" height="28" viewBox="0 0 28 28" fill="none" xmlns="http://www.w3.org/2000/svg">
<path d="M14 9.33334C15.2376 9.33334 16.4246 9.82501 17.2998 10.7002C18.175 11.5753 18.6666 12.7623 18.6666 14C18.6666 15.2377 18.175 16.4247 17.2998 17.2998C16.4246 18.175 15.2376 18.6667 14 18.6667C12.7623 18.6667 11.5753 18.175 10.7001 17.2998C9.82495 16.4247 9.33329 15.2377 9.33329 14C9.33329 12.7623 9.82495 11.5753 10.7001 10.7002C11.5753 9.82501 12.7623 9.33334 14 9.33334ZM14 11.6667C13.3811 11.6667 12.7876 11.9125 12.35 12.3501C11.9125 12.7877 11.6666 13.3812 11.6666 14C11.6666 14.6188 11.9125 15.2123 12.35 15.6499C12.7876 16.0875 13.3811 16.3333 14 16.3333C14.6188 16.3333 15.2123 16.0875 15.6499 15.6499C16.0875 15.2123 16.3333 14.6188 16.3333 14C16.3333 13.3812 16.0875 12.7877 15.6499 12.3501C15.2123 11.9125 14.6188 11.6667 14 11.6667ZM11.6666 25.6667C11.375 25.6667 11.13 25.4567 11.0833 25.1767L10.6516 22.085C9.91662 21.7933 9.28662 21.3967 8.67996 20.93L5.77496 22.1083C5.51829 22.2017 5.20329 22.1083 5.06329 21.8517L2.72996 17.815C2.65855 17.6948 2.63338 17.5527 2.65914 17.4153C2.68491 17.2779 2.75985 17.1545 2.86996 17.0683L5.33162 15.1317L5.24996 14L5.33162 12.8333L2.86996 10.9317C2.75985 10.8455 2.68491 10.7222 2.65914 10.5847C2.63338 10.4473 2.65855 10.3052 2.72996 10.185L5.06329 6.14834C5.20329 5.89168 5.51829 5.78668 5.77496 5.89168L8.67996 7.05834C9.28662 6.60334 9.91662 6.20668 10.6516 5.91501L11.0833 2.82334C11.13 2.54334 11.375 2.33334 11.6666 2.33334H16.3333C16.625 2.33334 16.87 2.54334 16.9166 2.82334L17.3483 5.91501C18.0833 6.20668 18.7133 6.60334 19.32 7.05834L22.225 5.89168C22.4816 5.78668 22.7966 5.89168 22.9366 6.14834L25.27 10.185C25.4216 10.4417 25.3516 10.7567 25.13 10.9317L22.6683 12.8333L22.75 14L22.6683 15.1667L25.13 17.0683C25.3516 17.2433 25.4216 17.5583 25.27 17.815L22.9366 21.8517C22.7966 22.1083 22.4816 22.2133 22.225 22.1083L19.32 20.9417C18.7133 21.3967 18.0833 21.7933 17.3483 22.085L16.9166 25.1767C16.87 25.4567 16.625 25.6667 16.3333 25.6667H11.6666ZM13.125 4.66668L12.6933 7.71168C11.2933 8.00334 10.0566 8.75001 9.15829 9.78834L6.34662 8.57501L5.47162 10.0917L7.93329 11.9C7.46662 13.2611 7.46662 14.7389 7.93329 16.1L5.45996 17.92L6.33496 19.4367L9.16996 18.2233C10.0683 19.25 11.2933 19.9967 12.6816 20.2767L13.1133 23.3333H14.8866L15.3183 20.2883C16.7066 19.9967 17.9316 19.25 18.83 18.2233L21.665 19.4367L22.54 17.92L20.0666 16.1117C20.5333 14.7467 20.5333 13.265 20.0666 11.9L22.5283 10.0917L21.6533 8.57501L18.8416 9.78834C17.9249 8.72705 16.6813 8.00063 15.3066 7.72334L14.875 4.66668H13.125Z" fill="white"/>
</svg>
