<svg width="36" height="37" viewBox="0 0 36 37" fill="none" xmlns="http://www.w3.org/2000/svg">
<rect y="0.380859" width="36" height="36" rx="4" fill="#545454"/>
<path d="M17.9999 21.8255C20.4544 21.8255 22.4443 19.8356 22.4443 17.3811C22.4443 14.9265 20.4544 12.9366 17.9999 12.9366C15.5453 12.9366 13.5554 14.9265 13.5554 17.3811C13.5554 19.8356 15.5453 21.8255 17.9999 21.8255Z" stroke="white" stroke-width="2.3" stroke-linecap="round" stroke-linejoin="round"/>
<path d="M8 21.8253V12.9364C8 9.86817 10.4873 7.38086 13.5556 7.38086H22.4444C25.5127 7.38086 28 9.86817 28 12.9364V21.8253C28 24.8935 25.5127 27.3809 22.4444 27.3809H13.5556C10.4873 27.3809 8 24.8935 8 21.8253Z" stroke="white" stroke-width="2.5"/>
<path d="M24.1111 11.2815L24.1228 11.2684" stroke="white" stroke-width="2.5" stroke-linecap="round" stroke-linejoin="round"/>
</svg>
