<svg width="36" height="37" viewBox="0 0 36 37" fill="none" xmlns="http://www.w3.org/2000/svg">
<rect y="0.380859" width="36" height="36" rx="4" fill="#545454"/>
<path d="M29.069 9.39095C29.069 9.39095 27.0448 10.5868 25.9191 10.9257C25.315 10.2311 24.512 9.73873 23.619 9.51526C22.7259 9.2918 21.7857 9.34801 20.9256 9.67629C20.0655 10.0046 19.3269 10.5891 18.8099 11.3508C18.2928 12.1125 18.0222 13.0146 18.0345 13.9352V14.9383C16.2716 14.984 14.5248 14.593 12.9496 13.8002C11.3744 13.0073 10.0198 11.8372 9.00627 10.3941C9.00627 10.3941 4.99373 19.4224 14.022 23.4349C11.956 24.8372 9.49496 25.5404 7 25.4412C16.0282 30.4569 27.0627 25.4412 27.0627 13.9051C27.0618 13.6256 27.0349 13.3469 26.9825 13.0725C28.0063 12.0628 29.069 9.39095 29.069 9.39095Z" stroke="white" stroke-width="2.5" stroke-linecap="round" stroke-linejoin="round"/>
</svg>
